<svg version="1.1" xmlns="http://www.w3.org/2000/svg" viewBox="0 0 1518 1300" width="1518" height="1300">
  <!-- svg-source:excalidraw -->
  
  <defs>
    <style class="style-fonts">
      @font-face {
        font-family: "Virgil";
        src: url("https://unpkg.com/@excalidraw/excalidraw@undefined/dist/excalidraw-assets/Virgil.woff2");
      }
      @font-face {
        font-family: "Cascadia";
        src: url("https://unpkg.com/@excalidraw/excalidraw@undefined/dist/excalidraw-assets/Cascadia.woff2");
      }
      @font-face {
        font-family: "Assistant";
        src: url("https://unpkg.com/@excalidraw/excalidraw@undefined/dist/excalidraw-assets/Assistant-Regular.woff2");
      }
    </style>
    
  </defs>
  <rect x="0" y="0" width="1518" height="1300" fill="#ffffff"/><g stroke-linecap="round" transform="translate(379 10) rotate(0 90 64)"><path d="M32 0 C73.3 0, 114.61 0, 148 0 C169.33 0, 180 10.67, 180 32 C180 48.69, 180 65.38, 180 96 C180 117.33, 169.33 128, 148 128 C105.7 128, 63.4 128, 32 128 C10.67 128, 0 117.33, 0 96 C0 76.82, 0 57.64, 0 32 C0 10.67, 10.67 0, 32 0" stroke="none" stroke-width="0" fill="#e7f5ff"/><path d="M32 0 C74.42 0, 116.84 0, 148 0 M32 0 C66.28 0, 100.56 0, 148 0 M148 0 C169.33 0, 180 10.67, 180 32 M148 0 C169.33 0, 180 10.67, 180 32 M180 32 C180 54.01, 180 76.03, 180 96 M180 32 C180 45.23, 180 58.47, 180 96 M180 96 C180 117.33, 169.33 128, 148 128 M180 96 C180 117.33, 169.33 128, 148 128 M148 128 C103.44 128, 58.88 128, 32 128 M148 128 C109.47 128, 70.95 128, 32 128 M32 128 C10.67 128, 0 117.33, 0 96 M32 128 C10.67 128, 0 117.33, 0 96 M0 96 C0 71.5, 0 47, 0 32 M0 96 C0 75.33, 0 54.66, 0 32 M0 32 C0 10.67, 10.67 0, 32 0 M0 32 C0 10.67, 10.67 0, 32 0" stroke="#1971c2" stroke-width="1" fill="none"/></g><g transform="translate(389 45.2) rotate(0 80 28.799999999999997)"><text x="80" y="0" font-family="Cascadia, Segoe UI Emoji" font-size="16px" fill="#1971c2" text-anchor="middle" style="white-space: pre;" direction="ltr" dominant-baseline="text-before-edge">👤</text><text x="80" y="19.2" font-family="Cascadia, Segoe UI Emoji" font-size="16px" fill="#1971c2" text-anchor="middle" style="white-space: pre;" direction="ltr" dominant-baseline="text-before-edge">Browser</text><text x="80" y="38.4" font-family="Cascadia, Segoe UI Emoji" font-size="16px" fill="#1971c2" text-anchor="middle" style="white-space: pre;" direction="ltr" dominant-baseline="text-before-edge">(xterm.js)</text></g><g stroke-linecap="round" transform="translate(667 10) rotate(0 90 64)"><path d="M32 0 C57.14 0, 82.28 0, 148 0 C169.33 0, 180 10.67, 180 32 C180 46.6, 180 61.2, 180 96 C180 117.33, 169.33 128, 148 128 C121.69 128, 95.39 128, 32 128 C10.67 128, 0 117.33, 0 96 C0 81.16, 0 66.32, 0 32 C0 10.67, 10.67 0, 32 0" stroke="none" stroke-width="0" fill="#e7f5ff"/><path d="M32 0 C56.7 0, 81.4 0, 148 0 M32 0 C71.2 0, 110.41 0, 148 0 M148 0 C169.33 0, 180 10.67, 180 32 M148 0 C169.33 0, 180 10.67, 180 32 M180 32 C180 55.26, 180 78.52, 180 96 M180 32 C180 51.58, 180 71.17, 180 96 M180 96 C180 117.33, 169.33 128, 148 128 M180 96 C180 117.33, 169.33 128, 148 128 M148 128 C112.03 128, 76.07 128, 32 128 M148 128 C110.89 128, 73.78 128, 32 128 M32 128 C10.67 128, 0 117.33, 0 96 M32 128 C10.67 128, 0 117.33, 0 96 M0 96 C0 71.64, 0 47.28, 0 32 M0 96 C0 83.01, 0 70.02, 0 32 M0 32 C0 10.67, 10.67 0, 32 0 M0 32 C0 10.67, 10.67 0, 32 0" stroke="#1971c2" stroke-width="1" fill="none"/></g><g transform="translate(677 45.2) rotate(0 80 28.799999999999997)"><text x="80" y="0" font-family="Cascadia, Segoe UI Emoji" font-size="16px" fill="#1971c2" text-anchor="middle" style="white-space: pre;" direction="ltr" dominant-baseline="text-before-edge">👤</text><text x="80" y="19.2" font-family="Cascadia, Segoe UI Emoji" font-size="16px" fill="#1971c2" text-anchor="middle" style="white-space: pre;" direction="ltr" dominant-baseline="text-before-edge">CLI / Agent</text><text x="80" y="38.4" font-family="Cascadia, Segoe UI Emoji" font-size="16px" fill="#1971c2" text-anchor="middle" style="white-space: pre;" direction="ltr" dominant-baseline="text-before-edge">(claude, curl)</text></g><g stroke-linecap="round" transform="translate(463 241) rotate(0 150 64)"><path d="M32 0 C81.27 0, 130.53 0, 268 0 C289.33 0, 300 10.67, 300 32 C300 54.27, 300 76.53, 300 96 C300 117.33, 289.33 128, 268 128 C191.85 128, 115.7 128, 32 128 C10.67 128, 0 117.33, 0 96 C0 80.72, 0 65.44, 0 32 C0 10.67, 10.67 0, 32 0" stroke="none" stroke-width="0" fill="#d0bfff"/><path d="M32 0 C119.37 0, 206.75 0, 268 0 M32 0 C102.96 0, 173.91 0, 268 0 M268 0 C289.33 0, 300 10.67, 300 32 M268 0 C289.33 0, 300 10.67, 300 32 M300 32 C300 47.96, 300 63.91, 300 96 M300 32 C300 51.45, 300 70.89, 300 96 M300 96 C300 117.33, 289.33 128, 268 128 M300 96 C300 117.33, 289.33 128, 268 128 M268 128 C196.91 128, 125.82 128, 32 128 M268 128 C201.04 128, 134.08 128, 32 128 M32 128 C10.67 128, 0 117.33, 0 96 M32 128 C10.67 128, 0 117.33, 0 96 M0 96 C0 71.91, 0 47.83, 0 32 M0 96 C0 75.1, 0 54.2, 0 32 M0 32 C0 10.67, 10.67 0, 32 0 M0 32 C0 10.67, 10.67 0, 32 0" stroke="#7048e8" stroke-width="1" fill="none"/></g><g transform="translate(473 276.2) rotate(0 140 28.799999999999983)"><text x="140" y="0" font-family="Cascadia, Segoe UI Emoji" font-size="16px" fill="#7048e8" text-anchor="middle" style="white-space: pre;" direction="ltr" dominant-baseline="text-before-edge">☁️</text><text x="140" y="19.2" font-family="Cascadia, Segoe UI Emoji" font-size="16px" fill="#7048e8" text-anchor="middle" style="white-space: pre;" direction="ltr" dominant-baseline="text-before-edge">Cloudflare Worker</text><text x="140" y="38.4" font-family="Cascadia, Segoe UI Emoji" font-size="16px" fill="#7048e8" text-anchor="middle" style="white-space: pre;" direction="ltr" dominant-baseline="text-before-edge">(stateless router)</text></g><g stroke-linecap="round" transform="translate(463 481) rotate(0 150 64)"><path d="M32 0 C120.82 0, 209.65 0, 268 0 C289.33 0, 300 10.67, 300 32 C300 49.47, 300 66.94, 300 96 C300 117.33, 289.33 128, 268 128 C206.93 128, 145.87 128, 32 128 C10.67 128, 0 117.33, 0 96 C0 74.41, 0 52.83, 0 32 C0 10.67, 10.67 0, 32 0" stroke="none" stroke-width="0" fill="#ffa8a8"/><path d="M32 0 C100.91 0, 169.82 0, 268 0 M32 0 C109.02 0, 186.05 0, 268 0 M268 0 C289.33 0, 300 10.67, 300 32 M268 0 C289.33 0, 300 10.67, 300 32 M300 32 C300 51.04, 300 70.08, 300 96 M300 32 C300 45.97, 300 59.94, 300 96 M300 96 C300 117.33, 289.33 128, 268 128 M300 96 C300 117.33, 289.33 128, 268 128 M268 128 C175.52 128, 83.03 128, 32 128 M268 128 C217.22 128, 166.44 128, 32 128 M32 128 C10.67 128, 0 117.33, 0 96 M32 128 C10.67 128, 0 117.33, 0 96 M0 96 C0 73.72, 0 51.44, 0 32 M0 96 C0 73.73, 0 51.47, 0 32 M0 32 C0 10.67, 10.67 0, 32 0 M0 32 C0 10.67, 10.67 0, 32 0" stroke="#c92a2a" stroke-width="1" fill="none"/></g><g transform="translate(473 516.2) rotate(0 140 28.799999999999983)"><text x="140" y="0" font-family="Cascadia, Segoe UI Emoji" font-size="16px" fill="#c92a2a" text-anchor="middle" style="white-space: pre;" direction="ltr" dominant-baseline="text-before-edge">🖥️</text><text x="140" y="19.2" font-family="Cascadia, Segoe UI Emoji" font-size="16px" fill="#c92a2a" text-anchor="middle" style="white-space: pre;" direction="ltr" dominant-baseline="text-before-edge">Workspace DO</text><text x="140" y="38.4" font-family="Cascadia, Segoe UI Emoji" font-size="16px" fill="#c92a2a" text-anchor="middle" style="white-space: pre;" direction="ltr" dominant-baseline="text-before-edge">(per-workspace)</text></g><g stroke-linecap="round" transform="translate(233 696) rotate(0 90 52)"><path d="M26 0 C53.62 0, 81.24 0, 154 0 C171.33 0, 180 8.67, 180 26 C180 46.37, 180 66.74, 180 78 C180 95.33, 171.33 104, 154 104 C119.14 104, 84.27 104, 26 104 C8.67 104, 0 95.33, 0 78 C0 64.89, 0 51.78, 0 26 C0 8.67, 8.67 0, 26 0" stroke="none" stroke-width="0" fill="#a5d8ff"/><path d="M26 0 C73.62 0, 121.24 0, 154 0 M26 0 C59.65 0, 93.29 0, 154 0 M154 0 C171.33 0, 180 8.67, 180 26 M154 0 C171.33 0, 180 8.67, 180 26 M180 26 C180 39.35, 180 52.7, 180 78 M180 26 C180 43.22, 180 60.45, 180 78 M180 78 C180 95.33, 171.33 104, 154 104 M180 78 C180 95.33, 171.33 104, 154 104 M154 104 C114.74 104, 75.48 104, 26 104 M154 104 C123.39 104, 92.79 104, 26 104 M26 104 C8.67 104, 0 95.33, 0 78 M26 104 C8.67 104, 0 95.33, 0 78 M0 78 C0 64.34, 0 50.67, 0 26 M0 78 C0 61.19, 0 44.39, 0 26 M0 26 C0 8.67, 8.67 0, 26 0 M0 26 C0 8.67, 8.67 0, 26 0" stroke="#1971c2" stroke-width="1" fill="none"/></g><g transform="translate(243 728.8) rotate(0 80 19.19999999999999)"><text x="80" y="0" font-family="Cascadia, Segoe UI Emoji" font-size="16px" fill="#1971c2" text-anchor="middle" style="white-space: pre;" direction="ltr" dominant-baseline="text-before-edge">FsEngine</text><text x="80" y="19.2" font-family="Cascadia, Segoe UI Emoji" font-size="16px" fill="#1971c2" text-anchor="middle" style="white-space: pre;" direction="ltr" dominant-baseline="text-before-edge">(fs module)</text></g><g stroke-linecap="round" transform="translate(813 696) rotate(0 92 52)"><path d="M26 0 C54.82 0, 83.64 0, 158 0 C175.33 0, 184 8.67, 184 26 C184 40.32, 184 54.63, 184 78 C184 95.33, 175.33 104, 158 104 C127.1 104, 96.21 104, 26 104 C8.67 104, 0 95.33, 0 78 C0 60.44, 0 42.88, 0 26 C0 8.67, 8.67 0, 26 0" stroke="none" stroke-width="0" fill="#a5d8ff"/><path d="M26 0 C52.99 0, 79.97 0, 158 0 M26 0 C62.83 0, 99.65 0, 158 0 M158 0 C175.33 0, 184 8.67, 184 26 M158 0 C175.33 0, 184 8.67, 184 26 M184 26 C184 44.95, 184 63.89, 184 78 M184 26 C184 46.01, 184 66.01, 184 78 M184 78 C184 95.33, 175.33 104, 158 104 M184 78 C184 95.33, 175.33 104, 158 104 M158 104 C109.55 104, 61.1 104, 26 104 M158 104 C116.88 104, 75.76 104, 26 104 M26 104 C8.67 104, 0 95.33, 0 78 M26 104 C8.67 104, 0 95.33, 0 78 M0 78 C0 60.9, 0 43.8, 0 26 M0 78 C0 66.55, 0 55.1, 0 26 M0 26 C0 8.67, 8.67 0, 26 0 M0 26 C0 8.67, 8.67 0, 26 0" stroke="#1971c2" stroke-width="1" fill="none"/></g><g transform="translate(823 728.8) rotate(0 82 19.19999999999999)"><text x="82" y="0" font-family="Cascadia, Segoe UI Emoji" font-size="16px" fill="#1971c2" text-anchor="middle" style="white-space: pre;" direction="ltr" dominant-baseline="text-before-edge">ProcessManager</text><text x="82" y="19.2" font-family="Cascadia, Segoe UI Emoji" font-size="16px" fill="#1971c2" text-anchor="middle" style="white-space: pre;" direction="ltr" dominant-baseline="text-before-edge">(child_process)</text></g><g stroke-linecap="round" transform="translate(521 696) rotate(0 92 52)"><path d="M26 0 C67.26 0, 108.52 0, 158 0 C175.33 0, 184 8.67, 184 26 C184 38.2, 184 50.4, 184 78 C184 95.33, 175.33 104, 158 104 C117.83 104, 77.66 104, 26 104 C8.67 104, 0 95.33, 0 78 C0 61.49, 0 44.98, 0 26 C0 8.67, 8.67 0, 26 0" stroke="none" stroke-width="0" fill="#a5d8ff"/><path d="M26 0 C74.98 0, 123.95 0, 158 0 M26 0 C74.57 0, 123.15 0, 158 0 M158 0 C175.33 0, 184 8.67, 184 26 M158 0 C175.33 0, 184 8.67, 184 26 M184 26 C184 40.91, 184 55.81, 184 78 M184 26 C184 45.55, 184 65.09, 184 78 M184 78 C184 95.33, 175.33 104, 158 104 M184 78 C184 95.33, 175.33 104, 158 104 M158 104 C125.46 104, 92.92 104, 26 104 M158 104 C111.76 104, 65.52 104, 26 104 M26 104 C8.67 104, 0 95.33, 0 78 M26 104 C8.67 104, 0 95.33, 0 78 M0 78 C0 64.45, 0 50.9, 0 26 M0 78 C0 66.62, 0 55.24, 0 26 M0 26 C0 8.67, 8.67 0, 26 0 M0 26 C0 8.67, 8.67 0, 26 0" stroke="#1971c2" stroke-width="1" fill="none"/></g><g transform="translate(531 728.8) rotate(0 82 19.19999999999999)"><text x="82" y="0" font-family="Cascadia, Segoe UI Emoji" font-size="16px" fill="#1971c2" text-anchor="middle" style="white-space: pre;" direction="ltr" dominant-baseline="text-before-edge">WebSocket</text><text x="82" y="19.2" font-family="Cascadia, Segoe UI Emoji" font-size="16px" fill="#1971c2" text-anchor="middle" style="white-space: pre;" direction="ltr" dominant-baseline="text-before-edge">(stdio streams)</text></g><g stroke-linecap="round" transform="translate(477 915) rotate(0 90 64)"><path d="M32 0 C63.85 0, 95.69 0, 148 0 C169.33 0, 180 10.67, 180 32 C180 52.3, 180 72.6, 180 96 C180 117.33, 169.33 128, 148 128 C107.08 128, 66.16 128, 32 128 C10.67 128, 0 117.33, 0 96 C0 78.9, 0 61.8, 0 32 C0 10.67, 10.67 0, 32 0" stroke="none" stroke-width="0" fill="#b2f2bb"/><path d="M32 0 C67.89 0, 103.78 0, 148 0 M32 0 C77.59 0, 123.18 0, 148 0 M148 0 C169.33 0, 180 10.67, 180 32 M148 0 C169.33 0, 180 10.67, 180 32 M180 32 C180 56.72, 180 81.44, 180 96 M180 32 C180 53.93, 180 75.85, 180 96 M180 96 C180 117.33, 169.33 128, 148 128 M180 96 C180 117.33, 169.33 128, 148 128 M148 128 C119.52 128, 91.03 128, 32 128 M148 128 C109.98 128, 71.97 128, 32 128 M32 128 C10.67 128, 0 117.33, 0 96 M32 128 C10.67 128, 0 117.33, 0 96 M0 96 C0 76.26, 0 56.51, 0 32 M0 96 C0 81.63, 0 67.27, 0 32 M0 32 C0 10.67, 10.67 0, 32 0 M0 32 C0 10.67, 10.67 0, 32 0" stroke="#2f9e44" stroke-width="1" fill="none"/></g><g transform="translate(487 950.2) rotate(0 80 28.80000000000001)"><text x="80" y="0" font-family="Cascadia, Segoe UI Emoji" font-size="16px" fill="#2f9e44" text-anchor="middle" style="white-space: pre;" direction="ltr" dominant-baseline="text-before-edge">🗄️</text><text x="80" y="19.2" font-family="Cascadia, Segoe UI Emoji" font-size="16px" fill="#2f9e44" text-anchor="middle" style="white-space: pre;" direction="ltr" dominant-baseline="text-before-edge">DO SQLite</text><text x="80" y="38.4" font-family="Cascadia, Segoe UI Emoji" font-size="16px" fill="#2f9e44" text-anchor="middle" style="white-space: pre;" direction="ltr" dominant-baseline="text-before-edge">(&lt;1ms reads)</text></g><g stroke-linecap="round" transform="translate(418 1142) rotate(0 140 64)"><path d="M32 0 C77.54 0, 123.08 0, 248 0 C269.33 0, 280 10.67, 280 32 C280 55.1, 280 78.19, 280 96 C280 117.33, 269.33 128, 248 128 C181.18 128, 114.36 128, 32 128 C10.67 128, 0 117.33, 0 96 C0 82.07, 0 68.15, 0 32 C0 10.67, 10.67 0, 32 0" stroke="none" stroke-width="0" fill="#b2f2bb"/><path d="M32 0 C108.35 0, 184.7 0, 248 0 M32 0 C97.81 0, 163.62 0, 248 0 M248 0 C269.33 0, 280 10.67, 280 32 M248 0 C269.33 0, 280 10.67, 280 32 M280 32 C280 54.46, 280 76.92, 280 96 M280 32 C280 54.46, 280 76.93, 280 96 M280 96 C280 117.33, 269.33 128, 248 128 M280 96 C280 117.33, 269.33 128, 248 128 M248 128 C187.67 128, 127.34 128, 32 128 M248 128 C162.66 128, 77.32 128, 32 128 M32 128 C10.67 128, 0 117.33, 0 96 M32 128 C10.67 128, 0 117.33, 0 96 M0 96 C0 73.57, 0 51.13, 0 32 M0 96 C0 77.02, 0 58.04, 0 32 M0 32 C0 10.67, 10.67 0, 32 0 M0 32 C0 10.67, 10.67 0, 32 0" stroke="#2f9e44" stroke-width="1" fill="none"/></g><g transform="translate(428 1180.8) rotate(0 130 25.200000000000045)"><text x="130" y="0" font-family="Cascadia, Segoe UI Emoji" font-size="14px" fill="#2f9e44" text-anchor="middle" style="white-space: pre;" direction="ltr" dominant-baseline="text-before-edge">files | file_cache</text><text x="130" y="16.8" font-family="Cascadia, Segoe UI Emoji" font-size="14px" fill="#2f9e44" text-anchor="middle" style="white-space: pre;" direction="ltr" dominant-baseline="text-before-edge">processes | terminal_buf</text><text x="130" y="33.6" font-family="Cascadia, Segoe UI Emoji" font-size="14px" fill="#2f9e44" text-anchor="middle" style="white-space: pre;" direction="ltr" dominant-baseline="text-before-edge">workspace_meta</text></g><g stroke-linecap="round" transform="translate(55 915) rotate(0 90 64)"><path d="M32 0 C61.13 0, 90.27 0, 148 0 C169.33 0, 180 10.67, 180 32 C180 46.7, 180 61.39, 180 96 C180 117.33, 169.33 128, 148 128 C117.33 128, 86.67 128, 32 128 C10.67 128, 0 117.33, 0 96 C0 82.2, 0 68.39, 0 32 C0 10.67, 10.67 0, 32 0" stroke="none" stroke-width="0" fill="#ffec99"/><path d="M32 0 C72.24 0, 112.48 0, 148 0 M32 0 C75.54 0, 119.07 0, 148 0 M148 0 C169.33 0, 180 10.67, 180 32 M148 0 C169.33 0, 180 10.67, 180 32 M180 32 C180 54.49, 180 76.98, 180 96 M180 32 C180 55.88, 180 79.77, 180 96 M180 96 C180 117.33, 169.33 128, 148 128 M180 96 C180 117.33, 169.33 128, 148 128 M148 128 C107.51 128, 67.01 128, 32 128 M148 128 C116.12 128, 84.24 128, 32 128 M32 128 C10.67 128, 0 117.33, 0 96 M32 128 C10.67 128, 0 117.33, 0 96 M0 96 C0 74.08, 0 52.15, 0 32 M0 96 C0 82.65, 0 69.31, 0 32 M0 32 C0 10.67, 10.67 0, 32 0 M0 32 C0 10.67, 10.67 0, 32 0" stroke="#f08c00" stroke-width="1" fill="none"/></g><g transform="translate(65 950.2) rotate(0 80 28.80000000000001)"><text x="80" y="0" font-family="Cascadia, Segoe UI Emoji" font-size="16px" fill="#f08c00" text-anchor="middle" style="white-space: pre;" direction="ltr" dominant-baseline="text-before-edge">🗄️</text><text x="80" y="19.2" font-family="Cascadia, Segoe UI Emoji" font-size="16px" fill="#f08c00" text-anchor="middle" style="white-space: pre;" direction="ltr" dominant-baseline="text-before-edge">R2 Bucket</text><text x="80" y="38.4" font-family="Cascadia, Segoe UI Emoji" font-size="16px" fill="#f08c00" text-anchor="middle" style="white-space: pre;" direction="ltr" dominant-baseline="text-before-edge">(FS_BUCKET)</text></g><g stroke-linecap="round" transform="translate(30 1142) rotate(0 140 64)"><path d="M32 0 C91.7 0, 151.41 0, 248 0 C269.33 0, 280 10.67, 280 32 C280 54.73, 280 77.46, 280 96 C280 117.33, 269.33 128, 248 128 C180.31 128, 112.62 128, 32 128 C10.67 128, 0 117.33, 0 96 C0 80.9, 0 65.79, 0 32 C0 10.67, 10.67 0, 32 0" stroke="none" stroke-width="0" fill="#ffec99"/><path d="M32 0 C102.07 0, 172.15 0, 248 0 M32 0 C118.21 0, 204.43 0, 248 0 M248 0 C269.33 0, 280 10.67, 280 32 M248 0 C269.33 0, 280 10.67, 280 32 M280 32 C280 48.85, 280 65.71, 280 96 M280 32 C280 54.36, 280 76.72, 280 96 M280 96 C280 117.33, 269.33 128, 248 128 M280 96 C280 117.33, 269.33 128, 248 128 M248 128 C165.25 128, 82.5 128, 32 128 M248 128 C186.37 128, 124.74 128, 32 128 M32 128 C10.67 128, 0 117.33, 0 96 M32 128 C10.67 128, 0 117.33, 0 96 M0 96 C0 77.09, 0 58.19, 0 32 M0 96 C0 71.27, 0 46.55, 0 32 M0 32 C0 10.67, 10.67 0, 32 0 M0 32 C0 10.67, 10.67 0, 32 0" stroke="#f08c00" stroke-width="1" fill="none"/></g><g transform="translate(40 1180.8) rotate(0 130 25.200000000000045)"><text x="130" y="0" font-family="Cascadia, Segoe UI Emoji" font-size="14px" fill="#f08c00" text-anchor="middle" style="white-space: pre;" direction="ltr" dominant-baseline="text-before-edge">{workspace_id}/{path}</text><text x="130" y="16.8" font-family="Cascadia, Segoe UI Emoji" font-size="14px" fill="#f08c00" text-anchor="middle" style="white-space: pre;" direction="ltr" dominant-baseline="text-before-edge">File content (blobs)</text><text x="130" y="33.6" font-family="Cascadia, Segoe UI Emoji" font-size="14px" fill="#f08c00" text-anchor="middle" style="white-space: pre;" direction="ltr" dominant-baseline="text-before-edge">$0.015/GB/month</text></g><g stroke-linecap="round" transform="translate(920 915) rotate(0 120 64)"><path d="M32 0 C88.27 0, 144.53 0, 208 0 C229.33 0, 240 10.67, 240 32 C240 48.09, 240 64.18, 240 96 C240 117.33, 229.33 128, 208 128 C154.11 128, 100.22 128, 32 128 C10.67 128, 0 117.33, 0 96 C0 82.89, 0 69.78, 0 32 C0 10.67, 10.67 0, 32 0" stroke="none" stroke-width="0" fill="#ffe8cc"/><path d="M32 0 C77.16 0, 122.33 0, 208 0 M32 0 C70.3 0, 108.59 0, 208 0 M208 0 C229.33 0, 240 10.67, 240 32 M208 0 C229.33 0, 240 10.67, 240 32 M240 32 C240 45.08, 240 58.16, 240 96 M240 32 C240 55.93, 240 79.86, 240 96 M240 96 C240 117.33, 229.33 128, 208 128 M240 96 C240 117.33, 229.33 128, 208 128 M208 128 C165.86 128, 123.73 128, 32 128 M208 128 C138.16 128, 68.32 128, 32 128 M32 128 C10.67 128, 0 117.33, 0 96 M32 128 C10.67 128, 0 117.33, 0 96 M0 96 C0 77.26, 0 58.53, 0 32 M0 96 C0 78.21, 0 60.42, 0 32 M0 32 C0 10.67, 10.67 0, 32 0 M0 32 C0 10.67, 10.67 0, 32 0" stroke="#fd7e14" stroke-width="1" fill="none"/></g><g transform="translate(930 950.2) rotate(0 110 28.80000000000001)"><text x="110" y="0" font-family="Cascadia, Segoe UI Emoji" font-size="16px" fill="#fd7e14" text-anchor="middle" style="white-space: pre;" direction="ltr" dominant-baseline="text-before-edge">Built-in Emulators</text><text x="110" y="19.2" font-family="Cascadia, Segoe UI Emoji" font-size="16px" fill="#fd7e14" text-anchor="middle" style="white-space: pre;" direction="ltr" dominant-baseline="text-before-edge">cat ls grep echo</text><text x="110" y="38.4" font-family="Cascadia, Segoe UI Emoji" font-size="16px" fill="#fd7e14" text-anchor="middle" style="white-space: pre;" direction="ltr" dominant-baseline="text-before-edge">pwd head tail wc</text></g><g stroke-linecap="round" transform="translate(1268 903) rotate(0 120 76)"><path d="M32 0 C81.12 0, 130.23 0, 208 0 C229.33 0, 240 10.67, 240 32 C240 63.18, 240 94.37, 240 120 C240 141.33, 229.33 152, 208 152 C160.01 152, 112.02 152, 32 152 C10.67 152, 0 141.33, 0 120 C0 95.23, 0 70.46, 0 32 C0 10.67, 10.67 0, 32 0" stroke="none" stroke-width="0" fill="#e599f7"/><path d="M32 0 C92.9 0, 153.8 0, 208 0 M32 0 C98.8 0, 165.6 0, 208 0 M208 0 C229.33 0, 240 10.67, 240 32 M208 0 C229.33 0, 240 10.67, 240 32 M240 32 C240 56.57, 240 81.13, 240 120 M240 32 C240 65.56, 240 99.12, 240 120 M240 120 C240 141.33, 229.33 152, 208 152 M240 120 C240 141.33, 229.33 152, 208 152 M208 152 C168.03 152, 128.05 152, 32 152 M208 152 C163.58 152, 119.16 152, 32 152 M32 152 C10.67 152, 0 141.33, 0 120 M32 152 C10.67 152, 0 141.33, 0 120 M0 120 C0 95.71, 0 71.43, 0 32 M0 120 C0 100.44, 0 80.88, 0 32 M0 32 C0 10.67, 10.67 0, 32 0 M0 32 C0 10.67, 10.67 0, 32 0" stroke="#9c36b5" stroke-width="1" fill="none"/></g><g transform="translate(1278 940.6) rotate(0 110 38.39999999999998)"><text x="110" y="0" font-family="Cascadia, Segoe UI Emoji" font-size="16px" fill="#9c36b5" text-anchor="middle" style="white-space: pre;" direction="ltr" dominant-baseline="text-before-edge">🐳</text><text x="110" y="19.2" font-family="Cascadia, Segoe UI Emoji" font-size="16px" fill="#9c36b5" text-anchor="middle" style="white-space: pre;" direction="ltr" dominant-baseline="text-before-edge">CF Container</text><text x="110" y="38.4" font-family="Cascadia, Segoe UI Emoji" font-size="16px" fill="#9c36b5" text-anchor="middle" style="white-space: pre;" direction="ltr" dominant-baseline="text-before-edge">(real Linux)</text><text x="110" y="57.599999999999994" font-family="Cascadia, Segoe UI Emoji" font-size="16px" fill="#9c36b5" text-anchor="middle" style="white-space: pre;" direction="ltr" dominant-baseline="text-before-edge">npm node python</text></g><g stroke-linecap="round"><g transform="translate(505 133) rotate(0 31.5 50)"><path d="M0 0 C13.8 21.9, 27.6 43.81, 63 100 M0 0 C24.08 38.22, 48.16 76.45, 63 100" stroke="#7048e8" stroke-width="2" fill="none"/></g><g transform="translate(505 133) rotate(0 31.5 50)"><path d="M39.29 81.62 C44.48 85.64, 49.68 89.67, 63 100 M39.29 81.62 C48.35 88.64, 57.42 95.67, 63 100" stroke="#7048e8" stroke-width="2" fill="none"/></g><g transform="translate(505 133) rotate(0 31.5 50)"><path d="M56.65 70.68 C58.04 77.1, 59.43 83.52, 63 100 M56.65 70.68 C59.08 81.89, 61.51 93.09, 63 100" stroke="#7048e8" stroke-width="2" fill="none"/></g></g><mask/><g transform="translate(537.2 177) rotate(0 45.80000000000001 10)"><text x="45.800000000000004" y="0" font-family="Virgil, Segoe UI Emoji" font-size="14px" fill="#1e1e1e" text-anchor="middle" style="white-space: pre;" direction="ltr" dominant-baseline="text-before-edge">HTTP / WS</text></g><g stroke-linecap="round"><g transform="translate(720 133) rotate(0 -31.5 50)"><path d="M0 0 C-21.36 33.9, -42.72 67.8, -63 100 M0 0 C-18.61 29.54, -37.22 59.09, -63 100" stroke="#7048e8" stroke-width="2" fill="none"/></g><g transform="translate(720 133) rotate(0 -31.5 50)"><path d="M-56.65 70.68 C-58.81 80.62, -60.96 90.56, -63 100 M-56.65 70.68 C-58.53 79.34, -60.4 88, -63 100" stroke="#7048e8" stroke-width="2" fill="none"/></g><g transform="translate(720 133) rotate(0 -31.5 50)"><path d="M-39.29 81.62 C-47.33 87.85, -55.37 94.08, -63 100 M-39.29 81.62 C-46.3 87.05, -53.3 92.48, -63 100" stroke="#7048e8" stroke-width="2" fill="none"/></g></g><mask/><g transform="translate(681.2 177) rotate(0 24.80000000000001 10)"><text x="24.8" y="0" font-family="Virgil, Segoe UI Emoji" font-size="14px" fill="#1e1e1e" text-anchor="middle" style="white-space: pre;" direction="ltr" dominant-baseline="text-before-edge">HTTP</text></g><g stroke-linecap="round"><g transform="translate(613 369) rotate(0 0 50.5)"><path d="M0 0 C0 38.2, 0 76.4, 0 101 M0 0 C0 28.86, 0 57.71, 0 101" stroke="#c92a2a" stroke-width="2" fill="none"/></g><g transform="translate(613 369) rotate(0 0 50.5)"><path d="M-10.26 72.81 C-6.38 83.47, -2.5 94.13, 0 101 M-10.26 72.81 C-7.33 80.86, -4.4 88.92, 0 101" stroke="#c92a2a" stroke-width="2" fill="none"/></g><g transform="translate(613 369) rotate(0 0 50.5)"><path d="M10.26 72.81 C6.38 83.47, 2.5 94.13, 0 101 M10.26 72.81 C7.33 80.86, 4.4 88.92, 0 101" stroke="#c92a2a" stroke-width="2" fill="none"/></g></g><mask/><g transform="translate(605 408) rotate(0 50 10)"><text x="50" y="0" font-family="Virgil, Segoe UI Emoji" font-size="14px" fill="#1e1e1e" text-anchor="middle" style="white-space: pre;" direction="ltr" dominant-baseline="text-before-edge">DO.fetch()</text></g><g stroke-linecap="round"><g transform="translate(534 600) rotate(0 -72.5 50.5)"><path d="M0 0 C-31.95 22.26, -63.9 44.51, -145 101 M0 0 C-48.7 33.92, -97.39 67.84, -145 101" stroke="#1971c2" stroke-width="2" fill="none"/></g><g transform="translate(534 600) rotate(0 -72.5 50.5)"><path d="M-127.73 76.47 C-131.54 81.87, -135.34 87.28, -145 101 M-127.73 76.47 C-133.53 84.71, -139.33 92.95, -145 101" stroke="#1971c2" stroke-width="2" fill="none"/></g><g transform="translate(534 600) rotate(0 -72.5 50.5)"><path d="M-116 93.31 C-122.39 95, -128.78 96.7, -145 101 M-116 93.31 C-125.74 95.89, -135.48 98.47, -145 101" stroke="#1971c2" stroke-width="2" fill="none"/></g></g><mask/><g stroke-linecap="round"><g transform="translate(637 600) rotate(0 100 50.5)"><path d="M0 0 C54.45 27.5, 108.91 55, 200 101 M0 0 C47.41 23.94, 94.81 47.88, 200 101" stroke="#1971c2" stroke-width="2" fill="none"/></g><g transform="translate(637 600) rotate(0 100 50.5)"><path d="M170.21 97.45 C178.32 98.42, 186.43 99.38, 200 101 M170.21 97.45 C177.27 98.29, 184.33 99.13, 200 101" stroke="#1971c2" stroke-width="2" fill="none"/></g><g transform="translate(637 600) rotate(0 100 50.5)"><path d="M179.46 79.13 C185.05 85.09, 190.65 91.04, 200 101 M179.46 79.13 C184.33 84.32, 189.2 89.5, 200 101" stroke="#1971c2" stroke-width="2" fill="none"/></g></g><mask/><g stroke-linecap="round"><g transform="translate(667 610) rotate(0 -27 37.5)"><path d="M0 0 C-18.36 25.5, -36.71 50.99, -54 75 M0 0 C-18.88 26.23, -37.77 52.45, -54 75" stroke="#1971c2" stroke-width="2" fill="none"/></g><g transform="translate(667 610) rotate(0 -27 37.5)"><path d="M-45.85 46.13 C-48.62 55.94, -51.39 65.76, -54 75 M-45.85 46.13 C-48.7 56.22, -51.55 66.32, -54 75" stroke="#1971c2" stroke-width="2" fill="none"/></g><g transform="translate(667 610) rotate(0 -27 37.5)"><path d="M-29.2 58.12 C-37.63 63.86, -46.06 69.6, -54 75 M-29.2 58.12 C-37.87 64.02, -46.54 69.92, -54 75" stroke="#1971c2" stroke-width="2" fill="none"/></g></g><mask/><g stroke-linecap="round"><g transform="translate(363 795) rotate(0 68 64)"><path d="M0 0 C16.08 18.34, 32.16 36.68, 57 65 M0 0 C15.25 17.39, 30.5 34.78, 57 65 M57 65 C82.82 85.59, 108.64 106.18, 136 128 M57 65 C83.05 85.77, 109.09 106.54, 136 128" stroke="#2f9e44" stroke-width="2" fill="none"/></g><g transform="translate(363 795) rotate(0 68 64)"><path d="M107.56 118.45 C115.59 121.14, 123.61 123.84, 136 128 M107.56 118.45 C115.17 121, 122.78 123.56, 136 128" stroke="#2f9e44" stroke-width="2" fill="none"/></g><g transform="translate(363 795) rotate(0 68 64)"><path d="M120.36 102.4 C124.77 109.62, 129.18 116.85, 136 128 M120.36 102.4 C124.54 109.25, 128.73 116.1, 136 128" stroke="#2f9e44" stroke-width="2" fill="none"/></g></g><mask/><g transform="translate(396.4 839) rotate(0 62.60000000000002 10)"><text x="62.6" y="0" font-family="Virgil, Segoe UI Emoji" font-size="14px" fill="#1e1e1e" text-anchor="middle" style="white-space: pre;" direction="ltr" dominant-baseline="text-before-edge">index + cache</text></g><g stroke-linecap="round"><g transform="translate(221 782) rotate(0 -50 61)"><path d="M0 0 C-28.99 17.68, -57.97 35.36, -100 61 M0 0 C-21.11 12.88, -42.22 25.75, -100 61 M-100 61 C-100 64.72, -100 68.43, -100 78 M-100 61 C-100 67.07, -100 73.14, -100 78 M-100 78 C-97.92 88.16, -95.84 98.33, -91 122 M-100 78 C-97.97 87.94, -95.93 97.89, -91 122" stroke="#f08c00" stroke-width="2" fill="none"/></g><g transform="translate(221 782) rotate(0 -50 61)"><path d="M-102.75 102.87 C-99.35 108.41, -95.94 113.96, -91 122 M-102.75 102.87 C-100.27 106.91, -97.79 110.94, -91 122" stroke="#f08c00" stroke-width="2" fill="none"/></g><g transform="translate(221 782) rotate(0 -50 61)"><path d="M-87.7 99.79 C-88.66 106.23, -89.61 112.66, -91 122 M-87.7 99.79 C-88.4 104.48, -89.1 109.17, -91 122" stroke="#f08c00" stroke-width="2" fill="none"/></g></g><mask/><g transform="translate(112.6 839) rotate(0 58.400000000000006 10)"><text x="58.400000000000006" y="0" font-family="Virgil, Segoe UI Emoji" font-size="14px" fill="#1e1e1e" text-anchor="middle" style="white-space: pre;" direction="ltr" dominant-baseline="text-before-edge">file content</text></g><g stroke-linecap="round"><g transform="translate(933 798) rotate(0 32.5 54.5)"><path d="M0 0 C15.5 26, 31.01 51.99, 65 109" stroke="#fd7e14" stroke-width="2.5" fill="none" stroke-dasharray="8 10"/></g><g transform="translate(933 798) rotate(0 32.5 54.5)"><path d="M41.75 90.04 C47.29 94.56, 52.84 99.09, 65 109" stroke="#fd7e14" stroke-width="2.5" fill="none"/></g><g transform="translate(933 798) rotate(0 32.5 54.5)"><path d="M59.37 79.53 C60.72 86.56, 62.06 93.59, 65 109" stroke="#fd7e14" stroke-width="2.5" fill="none"/></g></g><mask/><g transform="translate(960.4 883) rotate(0 41.599999999999966 10)"><text x="41.6" y="0" font-family="Virgil, Segoe UI Emoji" font-size="14px" fill="#1e1e1e" text-anchor="middle" style="white-space: pre;" direction="ltr" dominant-baseline="text-before-edge">$0, &lt;1ms</text></g><g stroke-linecap="round"><g transform="translate(947 779) rotate(0 173 70)"><path d="M0 0 C93.43 31.84, 186.86 63.68, 267 91 M267 91 C286.82 103.29, 306.63 115.58, 346 140" stroke="#9c36b5" stroke-width="2.5" fill="none" stroke-dasharray="8 10"/></g><g transform="translate(947 779) rotate(0 173 70)"><path d="M316.63 133.86 C326.91 136.01, 337.19 138.16, 346 140" stroke="#9c36b5" stroke-width="2.5" fill="none"/></g><g transform="translate(947 779) rotate(0 173 70)"><path d="M327.45 116.42 C333.94 124.67, 340.43 132.92, 346 140" stroke="#9c36b5" stroke-width="2.5" fill="none"/></g></g><mask/><g transform="translate(1178.6 839) rotate(0 58.39999999999998 10)"><text x="58.400000000000006" y="0" font-family="Virgil, Segoe UI Emoji" font-size="14px" fill="#1e1e1e" text-anchor="middle" style="white-space: pre;" direction="ltr" dominant-baseline="text-before-edge">getTcpPort()</text></g><g stroke-linecap="round"><g transform="translate(879 789) rotate(0 -119 69.5)"><path d="M0 0 C-62.91 36.74, -125.82 73.48, -238 139 M0 0 C-89.31 52.16, -178.62 104.32, -238 139" stroke="#2f9e44" stroke-width="2" fill="none"/></g><g transform="translate(879 789) rotate(0 -119 69.5)"><path d="M-218.83 115.92 C-223.9 122.02, -228.96 128.12, -238 139 M-218.83 115.92 C-226.02 124.58, -233.22 133.24, -238 139" stroke="#2f9e44" stroke-width="2" fill="none"/></g><g transform="translate(879 789) rotate(0 -119 69.5)"><path d="M-208.48 133.64 C-216.28 135.06, -224.09 136.47, -238 139 M-208.48 133.64 C-219.56 135.65, -230.64 137.66, -238 139" stroke="#2f9e44" stroke-width="2" fill="none"/></g></g><mask/><g transform="translate(748.4 839) rotate(0 62.60000000000002 10)"><text x="62.6" y="0" font-family="Virgil, Segoe UI Emoji" font-size="14px" fill="#1e1e1e" text-anchor="middle" style="white-space: pre;" direction="ltr" dominant-baseline="text-before-edge">process table</text></g><g stroke-linecap="round"><g transform="translate(584 798) rotate(0 -13.5 52.5)"><path d="M0 0 C-8.04 13.4, -16.08 26.8, -27 45 M0 0 C-8.67 14.45, -17.34 28.91, -27 45 M-27 45 C-27 48.66, -27 52.32, -27 62 M-27 45 C-27 49.27, -27 53.54, -27 62 M-27 62 C-26.33 71.59, -25.66 81.17, -24 105 M-27 62 C-25.92 77.43, -24.85 92.86, -24 105" stroke="#2f9e44" stroke-width="2" fill="none"/></g><g transform="translate(584 798) rotate(0 -13.5 52.5)"><path d="M-32.76 85.31 C-30.15 91.17, -27.54 97.03, -24 105 M-32.76 85.31 C-29.95 91.63, -27.13 97.96, -24 105" stroke="#2f9e44" stroke-width="2" fill="none"/></g><g transform="translate(584 798) rotate(0 -13.5 52.5)"><path d="M-18.06 84.28 C-19.83 90.45, -21.6 96.62, -24 105 M-18.06 84.28 C-19.97 90.94, -21.87 97.59, -24 105" stroke="#2f9e44" stroke-width="2" fill="none"/></g></g><mask/><g transform="translate(564 839) rotate(0 71 10)"><text x="71" y="0" font-family="Virgil, Segoe UI Emoji" font-size="14px" fill="#1e1e1e" text-anchor="middle" style="white-space: pre;" direction="ltr" dominant-baseline="text-before-edge">terminal buffer</text></g><g stroke-linecap="round"><g transform="translate(564 1043) rotate(0 -2 43.5)"><path d="M0 0 C-1.01 22.01, -2.02 44.02, -4 87" stroke="#2f9e44" stroke-width="2.5" fill="none" stroke-dasharray="1.5 8"/></g></g><mask/><g stroke-linecap="round"><g transform="translate(152 1043) rotate(0 4.5 43.5)"><path d="M0 0 C2.67 25.81, 5.34 51.62, 9 87" stroke="#f08c00" stroke-width="2.5" fill="none" stroke-dasharray="1.5 8"/></g></g><mask/><g stroke-opacity="0.6" fill-opacity="0.6" stroke-linecap="round" transform="translate(213 436) rotate(0 402 191.5)"><path d="M32 0 C318.92 0, 605.84 0, 772 0 M772 0 C793.33 0, 804 10.67, 804 32 M804 32 C804 128.71, 804 225.41, 804 351 M804 351 C804 372.33, 793.33 383, 772 383 M772 383 C479.53 383, 187.07 383, 32 383 M32 383 C10.67 383, 0 372.33, 0 351 M0 351 C0 226.53, 0 102.06, 0 32 M0 32 C0 10.67, 10.67 0, 32 0" stroke="#868e96" stroke-width="1.5" fill="none" stroke-dasharray="8 9"/></g><g stroke-opacity="0.6" fill-opacity="0.6" transform="translate(223 441) rotate(0 108.80000000000001 10)"><text x="0" y="0" font-family="Virgil, Segoe UI Emoji" font-size="14px" fill="#868e96" text-anchor="start" style="white-space: pre;" direction="ltr" dominant-baseline="text-before-edge">Workspace Durable Object</text></g><g stroke-opacity="0.6" fill-opacity="0.6" stroke-linecap="round" transform="translate(10 870) rotate(0 354 210)"><path d="M32 0 C253.96 0, 475.91 0, 676 0 M676 0 C697.33 0, 708 10.67, 708 32 M708 32 C708 160.12, 708 288.23, 708 388 M708 388 C708 409.33, 697.33 420, 676 420 M676 420 C433.14 420, 190.29 420, 32 420 M32 420 C10.67 420, 0 409.33, 0 388 M0 388 C0 271.1, 0 154.2, 0 32 M0 32 C0 10.67, 10.67 0, 32 0" stroke="#868e96" stroke-width="1.5" fill="none" stroke-dasharray="8 9"/></g><g stroke-opacity="0.6" fill-opacity="0.6" transform="translate(20 875) rotate(0 37.400000000000006 10)"><text x="0" y="0" font-family="Virgil, Segoe UI Emoji" font-size="14px" fill="#868e96" text-anchor="start" style="white-space: pre;" direction="ltr" dominant-baseline="text-before-edge">Storage</text></g></svg>